{"scene":0,"asset":{"generator":"ImageToStl.com","version":"2.0"},"scenes":[{"name":"Scene","nodes":[0]}],"nodes":[{"name":"Node0","children":[1,2,3,4,5,6,7,8,9,10,11,12]},{"name":"Node1","mesh":0},{"name":"Node2","mesh":1},{"name":"Node3","mesh":2},{"name":"Node4","mesh":3},{"name":"Node5","mesh":4},{"name":"Node6","mesh":5},{"name":"Node7","mesh":6},{"name":"Node8","mesh":7},{"name":"Node9","mesh":8},{"name":"Node10","mesh":9},{"name":"Node11","mesh":10},{"name":"Node12","mesh":11}],"materials":[{"name":"brakelights_red","pbrMetallicRoughness":{"baseColorFactor":[0.8,0.004308,0.0,1.0],"metallicFactor":0.5,"roughnessFactor":0.9039216},"emissiveFactor":[0.0,0.0,0.0],"doubleSided":true},{"name":"glass","pbrMetallicRoughness":{"baseColorFactor":[0.8,0.8,0.8,1.0],"metallicFactor":0.5,"roughnessFactor":0.64},"emissiveFactor":[0.0,0.0,0.0],"doubleSided":true},{"name":"rearlights_white","pbrMetallicRoughness":{"baseColorFactor":[0.8,0.8,0.8,1.0],"metallicFactor":0.5,"roughnessFactor":0.75},"emissiveFactor":[0.0,0.0,0.0],"doubleSided":true},{"name":"blinker_lamps","pbrMetallicRoughness":{"baseColorFactor":[0.8,0.145278,0.007748,1.0],"metallicFactor":0.5,"roughnessFactor":0.6231742},"emissiveFactor":[0.0,0.0,0.0],"doubleSided":true},{"name":"chrome","pbrMetallicRoughness":{"baseColorFactor":[0.8,0.8,0.8,1.0],"metallicFactor":0.5,"roughnessFactor":0.19},"emissiveFactor":[0.0,0.0,0.0],"doubleSided":true},{"name":"brakelights_red_dark","pbrMetallicRoughness":{"baseColorFactor":[0.178862,0.00212,0.0,1.0],"metallicFactor":0.5,"roughnessFactor":0.9039216},"emissiveFactor":[0.0,0.0,0.0],"doubleSided":true},{"name":"black_plastic_rough","pbrMetallicRoughness":{"baseColorFactor":[0.014031,0.014031,0.014031,1.0],"metallicFactor":0.5,"roughnessFactor":0.75},"emissiveFactor":[0.0,0.0,0.0],"doubleSided":true},{"name":"car_paint","pbrMetallicRoughness":{"baseColorFactor":[0.132864,0.132864,0.132864,1.0],"metallicFactor":0.5,"roughnessFactor":0.90999997},"emissiveFactor":[0.0,0.0,0.0],"doubleSided":true},{"name":"mirror_right","pbrMetallicRoughness":{"baseColorFactor":[0.8,0.8,0.8,1.0],"metallicFactor":0.5,"roughnessFactor":0.75},"emissiveFactor":[0.0,0.0,0.0],"doubleSided":true},{"name":"mirror_left","pbrMetallicRoughness":{"baseColorFactor":[0.8,0.8,0.8,1.0],"metallicFactor":0.5,"roughnessFactor":0.75},"emissiveFactor":[0.0,0.0,0.0],"doubleSided":true},{"name":"interior","pbrMetallicRoughness":{"baseColorFactor":[0.035104,0.03326,0.035218,1.0],"metallicFactor":0.5,"roughnessFactor":0.75},"emissiveFactor":[0.0,0.0,0.0],"doubleSided":true},{"name":"panel","pbrMetallicRoughness":{"baseColorFactor":[0.014669,0.014669,0.014669,1.0],"metallicFactor":0.5,"roughnessFactor":0.75},"emissiveFactor":[0.0,0.0,0.0],"doubleSided":true},{"name":"sits_leather","pbrMetallicRoughness":{"baseColorFactor":[0.009016,0.008114,0.007951,1.0],"metallicFactor":0.5,"roughnessFactor":0.75},"emissiveFactor":[0.0,0.0,0.0],"doubleSided":true},{"name":"metal","pbrMetallicRoughness":{"baseColorFactor":[0.8,0.8,0.8,1.0],"metallicFactor":0.5,"roughnessFactor":0.75},"emissiveFactor":[0.0,0.0,0.0],"doubleSided":true},{"name":"front_lamps","pbrMetallicRoughness":{"baseColorFactor":[0.8,0.8,0.8,1.0],"metallicFactor":0.5,"roughnessFactor":0.75},"emissiveFactor":[0.0,0.0,0.0],"doubleSided":true},{"name":"wheel_rubber","pbrMetallicRoughness":{"baseColorFactor":[0.059659,0.060793,0.079674,1.0],"metallicFactor":0.5,"roughnessFactor":0.9039216},"emissiveFactor":[0.0,0.0,0.0],"doubleSided":true},{"name":"brakes","pbrMetallicRoughness":{"baseColorFactor":[0.8,0.004308,0.0,1.0],"metallicFactor":0.5,"roughnessFactor":0.9039216},"emissiveFactor":[0.0,0.0,0.0],"doubleSided":true},{"name":"black_plastic.004","pbrMetallicRoughness":{"baseColorFactor":[0.110351,0.110351,0.110351,1.0],"metallicFactor":0.5,"roughnessFactor":0.9039216},"emissiveFactor":[0.0,0.0,0.0],"doubleSided":true}],"meshes":[{"name":"Mesh0","primitives":[{"indices":3,"material":0,"attributes":{"POSITION":0,"NORMAL":1,"TEXCOORD_0":2}},{"indices":4,"material":1,"attributes":{"POSITION":0,"NORMAL":1,"TEXCOORD_0":2}},{"indices":5,"material":2,"attributes":{"POSITION":0,"NORMAL":1,"TEXCOORD_0":2}},{"indices":6,"material":3,"attributes":{"POSITION":0,"NORMAL":1,"TEXCOORD_0":2}},{"indices":7,"material":4,"attributes":{"POSITION":0,"NORMAL":1,"TEXCOORD_0":2}},{"indices":8,"material":5,"attributes":{"POSITION":0,"NORMAL":1,"TEXCOORD_0":2}},{"indices":9,"material":6,"attributes":{"POSITION":0,"NORMAL":1,"TEXCOORD_0":2}}]},{"name":"Mesh0","primitives":[{"indices":13,"material":0,"attributes":{"POSITION":10,"NORMAL":11,"TEXCOORD_0":12}},{"indices":14,"material":1,"attributes":{"POSITION":10,"NORMAL":11,"TEXCOORD_0":12}},{"indices":15,"material":4,"attributes":{"POSITION":10,"NORMAL":11,"TEXCOORD_0":12}},{"indices":16,"material":6,"attributes":{"POSITION":10,"NORMAL":11,"TEXCOORD_0":12}},{"indices":17,"material":7,"attributes":{"POSITION":10,"NORMAL":11,"TEXCOORD_0":12}},{"indices":18,"material":8,"attributes":{"POSITION":10,"NORMAL":11,"TEXCOORD_0":12}},{"indices":19,"material":9,"attributes":{"POSITION":10,"NORMAL":11,"TEXCOORD_0":12}}]},{"name":"Mesh0","primitives":[{"indices":23,"material":10,"attributes":{"POSITION":20,"NORMAL":21,"TEXCOORD_0":22}},{"indices":24,"material":11,"attributes":{"POSITION":20,"NORMAL":21,"TEXCOORD_0":22}},{"indices":25,"material":12,"attributes":{"POSITION":20,"NORMAL":21,"TEXCOORD_0":22}},{"indices":26,"material":13,"attributes":{"POSITION":20,"NORMAL":21,"TEXCOORD_0":22}}]},{"name":"Mesh0","primitives":[{"indices":30,"material":3,"attributes":{"POSITION":27,"NORMAL":28,"TEXCOORD_0":29}}]},{"name":"Mesh0","primitives":[{"indices":34,"material":3,"attributes":{"POSITION":31,"NORMAL":32,"TEXCOORD_0":33}}]},{"name":"Mesh0","primitives":[{"indices":38,"material":1,"attributes":{"POSITION":35,"NORMAL":36,"TEXCOORD_0":37}},{"indices":39,"material":3,"attributes":{"POSITION":35,"NORMAL":36,"TEXCOORD_0":37}},{"indices":40,"material":4,"attributes":{"POSITION":35,"NORMAL":36,"TEXCOORD_0":37}},{"indices":41,"material":6,"attributes":{"POSITION":35,"NORMAL":36,"TEXCOORD_0":37}},{"indices":42,"material":14,"attributes":{"POSITION":35,"NORMAL":36,"TEXCOORD_0":37}}]},{"name":"Mesh0","primitives":[{"indices":46,"material":13,"attributes":{"POSITION":43,"NORMAL":44,"TEXCOORD_0":45}},{"indices":47,"material":15,"attributes":{"POSITION":43,"NORMAL":44,"TEXCOORD_0":45}},{"indices":48,"material":16,"attributes":{"POSITION":43,"NORMAL":44,"TEXCOORD_0":45}}]},{"name":"Mesh0","primitives":[{"indices":52,"material":13,"attributes":{"POSITION":49,"NORMAL":50,"TEXCOORD_0":51}},{"indices":53,"material":15,"attributes":{"POSITION":49,"NORMAL":50,"TEXCOORD_0":51}},{"indices":54,"material":16,"attributes":{"POSITION":49,"NORMAL":50,"TEXCOORD_0":51}}]},{"name":"Mesh0","primitives":[{"indices":58,"material":13,"attributes":{"POSITION":55,"NORMAL":56,"TEXCOORD_0":57}},{"indices":59,"material":15,"attributes":{"POSITION":55,"NORMAL":56,"TEXCOORD_0":57}},{"indices":60,"material":16,"attributes":{"POSITION":55,"NORMAL":56,"TEXCOORD_0":57}}]},{"name":"Mesh0","primitives":[{"indices":64,"material":13,"attributes":{"POSITION":61,"NORMAL":62,"TEXCOORD_0":63}},{"indices":65,"material":15,"attributes":{"POSITION":61,"NORMAL":62,"TEXCOORD_0":63}},{"indices":66,"material":16,"attributes":{"POSITION":61,"NORMAL":62,"TEXCOORD_0":63}}]},{"name":"Mesh0","primitives":[{"indices":70,"material":0,"attributes":{"POSITION":67,"NORMAL":68,"TEXCOORD_0":69}},{"indices":71,"material":17,"attributes":{"POSITION":67,"NORMAL":68,"TEXCOORD_0":69}}]},{"name":"Mesh0","primitives":[{"indices":75,"material":0,"attributes":{"POSITION":72,"NORMAL":73,"TEXCOORD_0":74}},{"indices":76,"material":17,"attributes":{"POSITION":72,"NORMAL":73,"TEXCOORD_0":74}}]}],"accessors":[{"bufferView":0,"componentType":5126,"count":1122,"type":"VEC3","min":[-0.85040694,1.9696167,0.75837547],"max":[0.85040694,2.295889,1.6958773]},{"bufferView":1,"componentType":5126,"count":1122,"type":"VEC3"},{"bufferView":2,"componentType":5126,"count":1122,"type":"VEC2"},{"bufferView":3,"componentType":5123,"count":8298,"type":"SCALAR"},{"bufferView":4,"componentType":5123,"count":2142,"type":"SCALAR"},{"bufferView":5,"componentType":5123,"count":540,"type":"SCALAR"},{"bufferView":6,"componentType":5123,"count":684,"type":"SCALAR"},{"bufferView":7,"componentType":5123,"count":2124,"type":"SCALAR"},{"bufferView":8,"componentType":5123,"count":900,"type":"SCALAR"},{"bufferView":9,"componentType":5123,"count":1242,"type":"SCALAR"},{"bufferView":10,"componentType":5126,"count":7554,"type":"VEC3","min":[-1.1151913,-2.313229,0.19637978],"max":[1.1151913,2.4519937,1.7574941]},{"bufferView":11,"componentType":5126,"count":7554,"type":"VEC3"},{"bufferView":12,"componentType":5126,"count":7554,"type":"VEC2"},{"bufferView":13,"componentType":5123,"count":882,"type":"SCALAR"},{"bufferView":14,"componentType":5123,"count":12024,"type":"SCALAR"},{"bufferView":15,"componentType":5123,"count":4896,"type":"SCALAR"},{"bufferView":16,"componentType":5123,"count":41004,"type":"SCALAR"},{"bufferView":17,"componentType":5123,"count":56628,"type":"SCALAR"},{"bufferView":18,"componentType":5123,"count":1440,"type":"SCALAR"},{"bufferView":19,"componentType":5123,"count":1440,"type":"SCALAR"},{"bufferView":20,"componentType":5126,"count":2126,"type":"VEC3","min":[-0.88268733,-1.3642902,0.23013791],"max":[0.88268733,2.3292892,1.7198548]},{"bufferView":21,"componentType":5126,"count":2126,"type":"VEC3"},{"bufferView":22,"componentType":5126,"count":2126,"type":"VEC2"},{"bufferView":23,"componentType":5123,"count":5238,"type":"SCALAR"},{"bufferView":24,"componentType":5123,"count":14778,"type":"SCALAR"},{"bufferView":25,"componentType":5123,"count":11844,"type":"SCALAR"},{"bufferView":26,"componentType":5123,"count":1440,"type":"SCALAR"},{"bufferView":27,"componentType":5126,"count":26,"type":"VEC3","min":[1.0883254,-0.6967774,1.1104988],"max":[1.1151912,-0.6087661,1.1531427]},{"bufferView":28,"componentType":5126,"count":26,"type":"VEC3"},{"bufferView":29,"componentType":5126,"count":26,"type":"VEC2"},{"bufferView":30,"componentType":5123,"count":288,"type":"SCALAR"},{"bufferView":31,"componentType":5126,"count":26,"type":"VEC3","min":[-1.1151912,-0.6967774,1.1104988],"max":[-1.0883254,-0.6087661,1.1531427]},{"bufferView":32,"componentType":5126,"count":26,"type":"VEC3"},{"bufferView":33,"componentType":5126,"count":26,"type":"VEC2"},{"bufferView":34,"componentType":5123,"count":288,"type":"SCALAR"},{"bufferView":35,"componentType":5126,"count":2036,"type":"VEC3","min":[-0.86711526,-2.2045498,0.35295135],"max":[0.86711526,-1.6889299,0.89842707]},{"bufferView":36,"componentType":5126,"count":2036,"type":"VEC3"},{"bufferView":37,"componentType":5126,"count":2036,"type":"VEC2"},{"bufferView":38,"componentType":5123,"count":2502,"type":"SCALAR"},{"bufferView":39,"componentType":5123,"count":540,"type":"SCALAR"},{"bufferView":40,"componentType":5123,"count":13140,"type":"SCALAR"},{"bufferView":41,"componentType":5123,"count":3528,"type":"SCALAR"},{"bufferView":42,"componentType":5123,"count":1656,"type":"SCALAR"},{"bufferView":43,"componentType":5126,"count":1299,"type":"VEC3","min":[-0.9521424,-1.7295852,-0.002014041],"max":[-0.7394987,-1.0529361,0.67092836]},{"bufferView":44,"componentType":5126,"count":1299,"type":"VEC3"},{"bufferView":45,"componentType":5126,"count":1299,"type":"VEC2"},{"bufferView":46,"componentType":5123,"count":13176,"type":"SCALAR"},{"bufferView":47,"componentType":5123,"count":4320,"type":"SCALAR"},{"bufferView":48,"componentType":5123,"count":3960,"type":"SCALAR"},{"bufferView":49,"componentType":5126,"count":1299,"type":"VEC3","min":[-0.9521424,1.1964371,-0.002014041],"max":[-0.7394987,1.8730862,0.67092836]},{"bufferView":50,"componentType":5126,"count":1299,"type":"VEC3"},{"bufferView":51,"componentType":5126,"count":1299,"type":"VEC2"},{"bufferView":52,"componentType":5123,"count":13176,"type":"SCALAR"},{"bufferView":53,"componentType":5123,"count":4320,"type":"SCALAR"},{"bufferView":54,"componentType":5123,"count":3960,"type":"SCALAR"},{"bufferView":55,"componentType":5126,"count":1299,"type":"VEC3","min":[0.7394987,-1.7295852,-0.0020140111],"max":[0.9521424,-1.0529361,0.67092836]},{"bufferView":56,"componentType":5126,"count":1299,"type":"VEC3"},{"bufferView":57,"componentType":5126,"count":1299,"type":"VEC2"},{"bufferView":58,"componentType":5123,"count":13176,"type":"SCALAR"},{"bufferView":59,"componentType":5123,"count":4320,"type":"SCALAR"},{"bufferView":60,"componentType":5123,"count":3960,"type":"SCALAR"},{"bufferView":61,"componentType":5126,"count":1299,"type":"VEC3","min":[0.7394987,1.1964371,-0.0020140111],"max":[0.9521424,1.8730862,0.67092836]},{"bufferView":62,"componentType":5126,"count":1299,"type":"VEC3"},{"bufferView":63,"componentType":5126,"count":1299,"type":"VEC2"},{"bufferView":64,"componentType":5123,"count":13176,"type":"SCALAR"},{"bufferView":65,"componentType":5123,"count":4320,"type":"SCALAR"},{"bufferView":66,"componentType":5123,"count":3960,"type":"SCALAR"},{"bufferView":67,"componentType":5126,"count":20,"type":"VEC3","min":[-0.25504047,2.3186183,0.7818101],"max":[0.25504124,2.366447,0.92565614]},{"bufferView":68,"componentType":5126,"count":20,"type":"VEC3"},{"bufferView":69,"componentType":5126,"count":20,"type":"VEC2"},{"bufferView":70,"componentType":5123,"count":18,"type":"SCALAR"},{"bufferView":71,"componentType":5123,"count":216,"type":"SCALAR"},{"bufferView":72,"componentType":5126,"count":20,"type":"VEC3","min":[-0.25503665,-2.32794,0.4618564],"max":[0.255045,-2.286685,0.60393506]},{"bufferView":73,"componentType":5126,"count":20,"type":"VEC3"},{"bufferView":74,"componentType":5126,"count":20,"type":"VEC2"},{"bufferView":75,"componentType":5123,"count":18,"type":"SCALAR"},{"bufferView":76,"componentType":5123,"count":216,"type":"SCALAR"}],"bufferViews":[{"target":34962,"buffer":0,"byteLength":13464,"byteOffset":0},{"target":34962,"buffer":0,"byteLength":13464,"byteOffset":13464},{"target":34962,"buffer":0,"byteLength":8976,"byteOffset":26928},{"target":34963,"buffer":0,"byteLength":16596,"byteOffset":35904},{"target":34963,"buffer":0,"byteLength":4284,"byteOffset":52500},{"target":34963,"buffer":0,"byteLength":1080,"byteOffset":56784},{"target":34963,"buffer":0,"byteLength":1368,"byteOffset":57864},{"target":34963,"buffer":0,"byteLength":4248,"byteOffset":59232},{"target":34963,"buffer":0,"byteLength":1800,"byteOffset":63480},{"target":34963,"buffer":0,"byteLength":2484,"byteOffset":65280},{"target":34962,"buffer":0,"byteLength":90648,"byteOffset":67764},{"target":34962,"buffer":0,"byteLength":90648,"byteOffset":158412},{"target":34962,"buffer":0,"byteLength":60432,"byteOffset":249060},{"target":34963,"buffer":0,"byteLength":1764,"byteOffset":309492},{"target":34963,"buffer":0,"byteLength":24048,"byteOffset":311256},{"target":34963,"buffer":0,"byteLength":9792,"byteOffset":335304},{"target":34963,"buffer":0,"byteLength":82008,"byteOffset":345096},{"target":34963,"buffer":0,"byteLength":113256,"byteOffset":427104},{"target":34963,"buffer":0,"byteLength":2880,"byteOffset":540360},{"target":34963,"buffer":0,"byteLength":2880,"byteOffset":543240},{"target":34962,"buffer":0,"byteLength":25512,"byteOffset":546120},{"target":34962,"buffer":0,"byteLength":25512,"byteOffset":571632},{"target":34962,"buffer":0,"byteLength":17008,"byteOffset":597144},{"target":34963,"buffer":0,"byteLength":10476,"byteOffset":614152},{"target":34963,"buffer":0,"byteLength":29556,"byteOffset":624628},{"target":34963,"buffer":0,"byteLength":23688,"byteOffset":654184},{"target":34963,"buffer":0,"byteLength":2880,"byteOffset":677872},{"target":34962,"buffer":0,"byteLength":312,"byteOffset":680752},{"target":34962,"buffer":0,"byteLength":312,"byteOffset":681064},{"target":34962,"buffer":0,"byteLength":208,"byteOffset":681376},{"target":34963,"buffer":0,"byteLength":576,"byteOffset":681584},{"target":34962,"buffer":0,"byteLength":312,"byteOffset":682160},{"target":34962,"buffer":0,"byteLength":312,"byteOffset":682472},{"target":34962,"buffer":0,"byteLength":208,"byteOffset":682784},{"target":34963,"buffer":0,"byteLength":576,"byteOffset":682992},{"target":34962,"buffer":0,"byteLength":24432,"byteOffset":683568},{"target":34962,"buffer":0,"byteLength":24432,"byteOffset":708000},{"target":34962,"buffer":0,"byteLength":16288,"byteOffset":732432},{"target":34963,"buffer":0,"byteLength":5004,"byteOffset":748720},{"target":34963,"buffer":0,"byteLength":1080,"byteOffset":753724},{"target":34963,"buffer":0,"byteLength":26280,"byteOffset":754804},{"target":34963,"buffer":0,"byteLength":7056,"byteOffset":781084},{"target":34963,"buffer":0,"byteLength":3312,"byteOffset":788140},{"target":34962,"buffer":0,"byteLength":15588,"byteOffset":791452},{"target":34962,"buffer":0,"byteLength":15588,"byteOffset":807040},{"target":34962,"buffer":0,"byteLength":10392,"byteOffset":822628},{"target":34963,"buffer":0,"byteLength":26352,"byteOffset":833020},{"target":34963,"buffer":0,"byteLength":8640,"byteOffset":859372},{"target":34963,"buffer":0,"byteLength":7920,"byteOffset":868012},{"target":34962,"buffer":0,"byteLength":15588,"byteOffset":875932},{"target":34962,"buffer":0,"byteLength":15588,"byteOffset":891520},{"target":34962,"buffer":0,"byteLength":10392,"byteOffset":907108},{"target":34963,"buffer":0,"byteLength":26352,"byteOffset":917500},{"target":34963,"buffer":0,"byteLength":8640,"byteOffset":943852},{"target":34963,"buffer":0,"byteLength":7920,"byteOffset":952492},{"target":34962,"buffer":0,"byteLength":15588,"byteOffset":960412},{"target":34962,"buffer":0,"byteLength":15588,"byteOffset":976000},{"target":34962,"buffer":0,"byteLength":10392,"byteOffset":991588},{"target":34963,"buffer":0,"byteLength":26352,"byteOffset":1001980},{"target":34963,"buffer":0,"byteLength":8640,"byteOffset":1028332},{"target":34963,"buffer":0,"byteLength":7920,"byteOffset":1036972},{"target":34962,"buffer":0,"byteLength":15588,"byteOffset":1044892},{"target":34962,"buffer":0,"byteLength":15588,"byteOffset":1060480},{"target":34962,"buffer":0,"byteLength":10392,"byteOffset":1076068},{"target":34963,"buffer":0,"byteLength":26352,"byteOffset":1086460},{"target":34963,"buffer":0,"byteLength":8640,"byteOffset":1112812},{"target":34963,"buffer":0,"byteLength":7920,"byteOffset":1121452},{"target":34962,"buffer":0,"byteLength":240,"byteOffset":1129372},{"target":34962,"buffer":0,"byteLength":240,"byteOffset":1129612},{"target":34962,"buffer":0,"byteLength":160,"byteOffset":1129852},{"target":34963,"buffer":0,"byteLength":36,"byteOffset":1130012},{"target":34963,"buffer":0,"byteLength":432,"byteOffset":1130048},{"target":34962,"buffer":0,"byteLength":240,"byteOffset":1130480},{"target":34962,"buffer":0,"byteLength":240,"byteOffset":1130720},{"target":34962,"buffer":0,"byteLength":160,"byteOffset":1130960},{"target":34963,"buffer":0,"byteLength":36,"byteOffset":1131120},{"target":34963,"buffer":0,"byteLength":432,"byteOffset":1131156}],"buffers":[{"byteLength":1131588,"uri":"data:application/octet-stream;base64,"}]}